<svg xmlns="http://www.w3.org/2000/svg" viewBox="0 0 93 115"><defs><style>.cls-1{fill:#e6e6e6;}</style></defs><title>アセット 2</title><g id="レイヤー_2" data-name="レイヤー 2"><g id="レイヤー_1-2" data-name="レイヤー 1"><path class="cls-1" d="M79.86,13.78H62a15.56,15.56,0,0,0-30.92,0H13.14A13.15,13.15,0,0,0,0,26.92v.67A13.17,13.17,0,0,0,8.3,39.8v62.06A13.16,13.16,0,0,0,21.44,115H71.56a13.15,13.15,0,0,0,13.13-13.14V39.8A13.16,13.16,0,0,0,93,27.59v-.67A13.16,13.16,0,0,0,79.86,13.78ZM46.5,6.23a9.34,9.34,0,0,1,9.16,7.55H37.34A9.34,9.34,0,0,1,46.5,6.23Zm32,95.63a6.92,6.92,0,0,1-6.9,6.91H21.44a6.92,6.92,0,0,1-6.91-6.91V40.73H78.46Zm8.3-74.27a6.91,6.91,0,0,1-6.9,6.91H13.14a6.92,6.92,0,0,1-6.91-6.91v-.67A6.92,6.92,0,0,1,13.14,20H79.86a6.91,6.91,0,0,1,6.9,6.91v.67Z"/><path class="cls-1" d="M29.79,100.8a3.11,3.11,0,0,0,3.12-3.11V62.61a3.12,3.12,0,1,0-6.23,0V97.69A3.11,3.11,0,0,0,29.79,100.8Z"/><path class="cls-1" d="M46.5,100.8a3.11,3.11,0,0,0,3.11-3.11V62.61a3.12,3.12,0,1,0-6.23,0V97.69A3.12,3.12,0,0,0,46.5,100.8Z"/><path class="cls-1" d="M63.2,100.8a3.12,3.12,0,0,0,3.12-3.11V62.61a3.12,3.12,0,1,0-6.23,0V97.69A3.1,3.1,0,0,0,63.2,100.8Z"/></g></g></svg>